<svg width="49" height="44" viewBox="0 0 49 44" fill="none" xmlns="http://www.w3.org/2000/svg">
<path fill-rule="evenodd" clip-rule="evenodd" d="M48.2474 22.3195C48.2474 25.2778 47.6639 28.1528 46.5248 30.8611C45.5523 33.1667 44.1909 35.2778 42.4961 37.125C42.2738 37.3611 42.0516 37.5973 41.8293 37.8334C41.6209 38.0417 41.4125 38.2361 41.2042 38.4445C39.5649 39.9584 37.7312 41.1945 35.7308 42.1528C35.4529 42.2917 35.1612 42.4167 34.8695 42.5417C34.8556 42.5417 34.8556 42.5556 34.8417 42.5556C33.1746 43.2639 31.3826 43.6111 29.5627 43.6111H0.667603V37.1528H27.4929C35.6057 37.1528 42.2599 30.6667 42.3711 22.5556C42.3711 22.4861 42.3711 22.4167 42.3711 22.3473C42.3711 13.4861 35.1751 6.29169 26.312 6.29169C17.449 6.26392 10.253 13.4445 10.253 22.3195H13.976L7.32182 31.625L0.667603 22.3195H4.39063C4.39063 19.3611 4.97409 16.4861 6.11323 13.7778C7.22458 11.1667 8.79436 8.81947 10.8087 6.80558C12.823 4.79169 15.1707 3.20836 17.7824 2.11114C20.4913 0.97225 23.367 0.388916 26.3259 0.388916C26.9233 0.388916 27.5067 0.416694 28.0902 0.45836C29.8128 0.597249 31.4937 0.930582 33.133 1.47225C33.7164 1.66669 34.286 1.87503 34.8556 2.12503C37.4672 3.23614 39.815 4.80558 41.8293 6.81947C43.8436 8.83336 45.4273 11.1806 46.5248 13.7917C47.6639 16.4861 48.2474 19.3611 48.2474 22.3195Z" fill="white"/>
</svg>
